HIERARCHY
ROOT Hips
{
	OFFSET 44.810799 9.715415 95.362503
	CHANNELS 6 Xposition Yposition Zposition Xrotation Yrotation Zrotation
	JOINT spine
	{
		OFFSET 0.000000 -0.467661 8.132492
		CHANNELS 3 Xrotation Yrotation Zrotation
		JOINT spine1
		{
			OFFSET 0.000000 -0.000001 10.349800
			CHANNELS 3 Xrotation Yrotation Zrotation
			JOINT spine2
			{
				OFFSET 0.000000 -0.000002 9.916992
				CHANNELS 3 Xrotation Yrotation Zrotation
				JOINT Neck
				{
					OFFSET 0.000000 -1.213903 25.461006
					CHANNELS 3 Xrotation Yrotation Zrotation
					JOINT Head
					{
						OFFSET 0.000000 -0.000002 7.692444
						CHANNELS 3 Xrotation Yrotation Zrotation
						End Site
						{
							OFFSET 0.000000 6.140627 18.619995
						}
					}
				}
				JOINT RightShoulder
				{
					OFFSET -4.175751 0.581443 10.709602
					CHANNELS 3 Xrotation Yrotation Zrotation
					JOINT RightArm
					{
						OFFSET 0.000000 -0.000002 14.046600
						CHANNELS 3 Xrotation Yrotation Zrotation
						JOINT RightArmRoll
						{
							OFFSET 0.000000 -0.000002 7.090973
							CHANNELS 3 Xrotation Yrotation Zrotation
							JOINT RightForeArm
							{
								OFFSET 0.000000 -0.000003 20.653503
								CHANNELS 3 Xrotation Yrotation Zrotation
								JOINT RightForeArmRoll
								{
									OFFSET 0.000000 -0.000001 7.957184
									CHANNELS 3 Xrotation Yrotation Zrotation
									JOINT RightHand
									{
										OFFSET 0.000000 -0.000003 15.968307
										CHANNELS 3 Xrotation Yrotation Zrotation
										End Site
										{
											OFFSET 0.000000 0.000000 0.100006
										}
									}
								}
							}
						}
					}
				}
				JOINT LeftShoulder
				{
					OFFSET 4.175751 0.581443 10.709602
					CHANNELS 3 Xrotation Yrotation Zrotation
					JOINT LeftArm
					{
						OFFSET 0.000000 -0.000002 14.046600
						CHANNELS 3 Xrotation Yrotation Zrotation
						JOINT LeftArmRoll
						{
							OFFSET 0.000000 -0.000002 7.090988
							CHANNELS 3 Xrotation Yrotation Zrotation
							JOINT LeftForeArm
							{
								OFFSET 0.000000 -0.000003 20.653503
								CHANNELS 3 Xrotation Yrotation Zrotation
								JOINT LeftForeArmRoll
								{
									OFFSET 0.000000 -0.000001 7.957184
									CHANNELS 3 Xrotation Yrotation Zrotation
									JOINT LeftHand
									{
										OFFSET 0.000000 -0.000003 15.968292
										CHANNELS 3 Xrotation Yrotation Zrotation
										End Site
										{
											OFFSET 0.000000 0.000000 0.100006
										}
									}
								}
							}
						}
					}
				}
			}
		}
	}
	JOINT RightUpLeg
	{
		OFFSET -7.208340 1.108840 -1.321823
		CHANNELS 3 Xrotation Yrotation Zrotation
		JOINT RightUpLegRoll
		{
			OFFSET 0.000000 -0.000003 18.723801
			CHANNELS 3 Xrotation Yrotation Zrotation
			JOINT RightLeg
			{
				OFFSET 0.000000 0.000004 -23.186600
				CHANNELS 3 Xrotation Yrotation Zrotation
				JOINT RightLegRoll
				{
					OFFSET 0.000000 -0.000004 23.262398
					CHANNELS 3 Xrotation Yrotation Zrotation
					JOINT RightFoot
					{
						OFFSET 0.000000 -0.000004 19.362099
						CHANNELS 3 Xrotation Yrotation Zrotation
						JOINT RightToeBase
						{
							OFFSET 0.000000 -0.000002 16.185699
							CHANNELS 3 Xrotation Yrotation Zrotation
							End Site
							{
								OFFSET 0.006859 0.903521 7.838623
							}
						}
					}
				}
			}
		}
	}
	JOINT LeftUpLeg
	{
		OFFSET 7.208340 1.108840 -1.321823
		CHANNELS 3 Xrotation Yrotation Zrotation
		JOINT LeftUpLegRoll
		{
			OFFSET 0.000000 -0.000003 18.723900
			CHANNELS 3 Xrotation Yrotation Zrotation
			JOINT LeftLeg
			{
				OFFSET 0.000000 -0.000004 23.186501
				CHANNELS 3 Xrotation Yrotation Zrotation
				JOINT LeftLegRoll
				{
					OFFSET 0.000000 -0.000004 23.477509
					CHANNELS 3 Xrotation Yrotation Zrotation
					JOINT LeftFoot
					{
						OFFSET 0.000000 -0.000004 19.147003
						CHANNELS 3 Xrotation Yrotation Zrotation
						JOINT LeftToeBase
						{
							OFFSET 0.000000 -0.000002 16.185699
							CHANNELS 3 Xrotation Yrotation Zrotation
							End Site
							{
								OFFSET -0.030746 0.903521 7.838623
							}
						}
					}
				}
			}
		}
	}
}
MOTION
Frames: 8
Frame Time: 0.041667
50.213001 -7.000007 96.083984 -3.253405 0.658920 0.237736 -0.403036 -0.456228 -0.005139 3.196349 -0.903769 -0.002613 4.841513 -0.903662 0.007998 14.557778 2.181135 -3.703330 -8.047393 -1.993291 -3.699072 -16.305757 -57.619455 -19.245415 -38.786131 -121.873511 -15.609332 0.000000 -0.000020 -0.000009 0.040776 -6.052738 -0.654036 0.000001 0.000001 -3.020187 -5.000203 -7.999232 0.000089 -14.227218 57.304078 16.755385 -34.594614 119.097326 22.827713 -0.000001 -0.000000 0.000001 0.063532 8.472705 1.167891 0.000006 -0.000017 3.047950 -5.000252 7.998942 -0.000133 -1.221756 -175.938925 2.999542 -179.999991 0.000005 -1.029004 169.636532 -2.937376 -0.633921 -0.000002 0.000003 0.089261 69.894740 6.399683 3.362042 25.456901 -7.354683 -0.000008 -0.724393 175.577362 0.160864 -0.000020 -0.000005 -0.999243 -13.230329 0.554085 0.663140 -0.000003 -0.000001 -0.267540 73.500588 -6.196234 -3.799737 25.456890 7.346275 0.000004 
50.213299 -7.004159 96.082893 -3.244212 0.658196 0.239616 -0.400970 -0.456109 -0.005226 3.199939 -0.904149 -0.003727 4.845094 -0.904061 0.006904 14.551214 2.174869 -3.705809 -8.037573 -1.988597 -3.701540 -16.304307 -57.613233 -19.243604 -38.772597 -121.877786 -15.598690 0.000001 -0.000020 -0.000009 0.040777 -6.054138 -0.654026 0.000002 0.000002 -3.020187 -5.000205 -7.999230 0.000092 -14.224076 57.306769 16.751746 -34.580076 119.100932 22.792970 -0.000000 -0.000000 0.000002 0.063532 8.461787 1.169363 0.000006 -0.000017 3.047939 -5.000252 7.998941 -0.000135 -1.234333 -175.941944 2.994726 -179.999991 0.000005 -1.029004 169.626560 -2.934326 -0.633892 -0.000001 0.000003 0.089425 69.901966 6.399934 3.361869 25.456897 -7.354683 -0.000006 -0.730259 175.575367 0.160099 -0.000020 -0.000005 -0.999130 -13.228532 0.555523 0.663249 -0.000003 -0.000001 -0.267635 73.501633 -6.195885 -3.802328 25.456885 7.346273 0.000005 
50.209900 -7.009463 96.082787 -3.235620 0.657324 0.241550 -0.398814 -0.455953 -0.005301 3.203640 -0.904476 -0.004850 4.848795 -0.904406 0.005800 14.544746 2.168641 -3.708372 -8.028020 -1.983980 -3.704122 -16.302705 -57.607332 -19.241621 -38.758745 -121.881953 -15.588285 -0.000001 -0.000019 -0.000006 0.040779 -6.056020 -0.654016 0.000000 0.000001 -3.020190 -5.000204 -7.999230 0.000087 -14.220651 57.309604 16.747760 -34.565009 119.104374 22.756964 -0.000000 0.000001 0.000002 0.063532 8.450495 1.170875 0.000006 -0.000017 3.047931 -5.000254 7.998942 -0.000133 -1.246198 -175.944963 2.990321 -179.999991 0.000005 -1.029004 169.616765 -2.931292 -0.634851 -0.000002 0.000003 0.089575 69.909172 6.400117 3.361889 25.456901 -7.354682 -0.000007 -0.735261 175.573373 0.159210 -0.000020 -0.000005 -0.999041 -13.226336 0.557083 0.663348 -0.000002 -0.000001 -0.267719 73.502712 -6.195563 -3.804823 25.456892 7.346271 0.000005 
50.206902 -7.011609 96.081795 -3.227441 0.656348 0.243521 -0.396599 -0.455770 -0.005367 3.207430 -0.904765 -0.005980 4.852586 -0.904715 0.004690 14.538481 2.162448 -3.710995 -8.018669 -1.979420 -3.706770 -16.300918 -57.601458 -19.239420 -38.744914 -121.886092 -15.578203 0.000001 -0.000021 -0.000010 0.040776 -6.058247 -0.653996 0.000001 0.000001 -3.020188 -5.000207 -7.999230 0.000091 -14.217025 57.312548 16.743563 -34.550792 119.106942 22.721415 -0.000000 0.000001 0.000003 0.063533 8.438936 1.172396 0.000006 -0.000017 3.047919 -5.000254 7.998941 -0.000133 -1.257553 -175.947982 2.986193 -179.999991 0.000005 -1.029004 169.607080 -2.928245 -0.634805 -0.000002 0.000003 0.089716 69.916357 6.400196 3.362189 25.456897 -7.354682 -0.000007 -0.739659 175.572362 0.158224 -0.000020 -0.000004 -0.998967 -13.223937 0.558729 0.663439 -0.000004 -0.000001 -0.267795 73.503777 -6.195273 -3.807319 25.456890 7.346273 0.000005 
50.194801 -7.015906 96.085396 -3.219511 0.655314 0.245512 -0.394349 -0.455572 -0.005429 3.211261 -0.905034 -0.007114 4.856418 -0.905002 0.003575 14.532319 2.156274 -3.713657 -8.009418 -1.974891 -3.709457 -16.299068 -57.595693 -19.237141 -38.731930 -121.889425 -15.569351 -0.000000 -0.000021 -0.000011 0.040778 -6.060668 -0.653978 0.000003 0.000001 -3.020191 -5.000206 -7.999229 0.000087 -14.213333 57.315608 16.739265 -34.535567 119.110344 22.684402 0.000000 0.000001 0.000002 0.063533 8.427238 1.173941 0.000006 -0.000017 3.047899 -5.000253 7.998942 -0.000135 -1.268628 -175.949990 2.982216 -179.999991 0.000004 -1.029004 169.597381 -2.926192 -0.634940 -0.000001 0.000003 0.089851 69.923433 6.400302 3.362398 25.456902 -7.354681 -0.000007 -0.743711 175.570381 0.157200 -0.000020 -0.000005 -0.998903 -13.221543 0.560422 0.663528 -0.000002 -0.000001 -0.267866 73.504843 -6.194981 -3.809721 25.456892 7.346273 0.000004 
50.193802 -7.018788 96.084190 -3.211638 0.654265 0.247511 -0.392085 -0.455370 -0.005490 3.215102 -0.905296 -0.008249 4.860258 -0.905283 0.002459 14.526151 2.150109 -3.716323 -8.000189 -1.970360 -3.712147 -16.297183 -57.589928 -19.234812 -38.717948 -121.893509 -15.559345 -0.000001 -0.000020 -0.000010 0.040777 -6.063149 -0.653959 -0.000001 0.000001 -3.020191 -5.000207 -7.999230 0.000094 -14.209635 57.318770 16.734976 -34.520155 119.113691 22.647137 -0.000000 0.000000 0.000002 0.063533 8.415484 1.175483 0.000006 -0.000017 3.047888 -5.000251 7.998941 -0.000135 -1.279629 -175.953009 2.978295 -179.999991 0.000005 -1.029004 169.587805 -2.923147 -0.634888 -0.000001 0.000003 0.089984 69.930612 6.400380 3.362699 25.456901 -7.354685 -0.000007 -0.747676 175.569384 0.156152 -0.000020 -0.000005 -0.998841 -13.218945 0.562129 0.663614 -0.000003 -0.000001 -0.267936 73.505826 -6.194752 -3.812131 25.456889 7.346272 0.000005 
50.198395 -7.016191 96.083290 -3.203636 0.653245 0.249498 -0.389846 -0.455175 -0.005553 3.218923 -0.905570 -0.009382 4.864078 -0.905577 0.001346 14.519988 2.143934 -3.718979 -7.990914 -1.965829 -3.714835 -16.295313 -57.584075 -19.232510 -38.704951 -121.896842 -15.550403 -0.000000 -0.000020 -0.000010 0.040776 -6.065518 -0.653940 0.000002 0.000001 -3.020189 -5.000204 -7.999229 0.000090 -14.205941 57.321734 16.730687 -34.504774 119.117024 22.610050 -0.000001 0.000001 0.000002 0.063534 8.403827 1.177025 0.000006 -0.000017 3.047870 -5.000253 7.998941 -0.000134 -1.290776 -175.955030 2.974264 -179.999991 0.000005 -1.029004 169.578106 -2.921080 -0.636030 -0.000001 0.000003 0.090121 69.937688 6.400481 3.362909 25.456904 -7.354682 -0.000007 -0.751815 175.567363 0.155141 -0.000020 -0.000005 -0.998775 -13.216550 0.563811 0.663703 -0.000003 -0.000001 -0.268008 73.506899 -6.194460 -3.814532 25.456885 7.346273 0.000006 
50.190601 -7.020478 96.083389 -3.195349 0.652302 0.251460 -0.387647 -0.455001 -0.005621 3.222683 -0.905870 -0.010510 4.867840 -0.905896 0.000237 14.513727 2.137730 -3.721594 -7.981495 -1.961250 -3.717464 -16.293570 -57.578201 -19.230353 -38.691137 -121.901009 -15.540227 0.000001 -0.000020 -0.000010 0.040777 -6.067649 -0.653924 0.000001 0.000001 -3.020188 -5.000205 -7.999231 0.000091 -14.202387 57.324678 16.726556 -34.489532 119.120439 22.573514 0.000000 0.000001 0.000001 0.063534 8.392345 1.178548 0.000006 -0.000017 3.047860 -5.000252 7.998942 -0.000134 -1.302278 -175.958036 2.970070 -179.999991 0.000005 -1.029004 169.568421 -2.918048 -0.635982 -0.000001 0.000003 0.090263 69.944880 6.400586 3.363112 25.456902 -7.354683 -0.000007 -0.756382 175.566379 0.154179 -0.000020 -0.000005 -0.998696 -13.214255 0.565431 0.663797 -0.000002 -0.000001 -0.268086 73.507964 -6.194140 -3.817026 25.456885 7.346272 0.000005 
